<svg height="1000" version="1.1" width="1400" xmlns="http://www.w3.org/2000/svg" style="overflow: hidden; position: relative;"><desc>Created with Raphaël 2.1.0</desc><defs/><text style="text-anchor: middle; font: 10px &quot;Arial&quot;;" x="38" y="15" text-anchor="middle" font="10px &quot;Arial&quot;" stroke="none" fill="#000000"><tspan dy="3.5">0-1</tspan></text><text style="text-anchor: middle; font: 10px &quot;Arial&quot;;" x="88" y="15" text-anchor="middle" font="10px &quot;Arial&quot;" stroke="none" fill="#000000"><tspan dy="3.5">1-2</tspan></text><text style="text-anchor: middle; font: 10px &quot;Arial&quot;;" x="138" y="15" text-anchor="middle" font="10px &quot;Arial&quot;" stroke="none" fill="#000000"><tspan dy="3.5">2-3</tspan></text><text style="text-anchor: middle; font: 10px &quot;Arial&quot;;" x="188" y="15" text-anchor="middle" font="10px &quot;Arial&quot;" stroke="none" fill="#000000"><tspan dy="3.5">3-4</tspan></text><text style="text-anchor: middle; font: 10px &quot;Arial&quot;;" x="238" y="15" text-anchor="middle" font="10px &quot;Arial&quot;" stroke="none" fill="#000000"><tspan dy="3.5">4-5</tspan></text><text style="text-anchor: middle; font: 10px &quot;Arial&quot;;" x="288" y="15" text-anchor="middle" font="10px &quot;Arial&quot;" stroke="none" fill="#000000"><tspan dy="3.5">5-6</tspan></text><text style="text-anchor: middle; font: 10px &quot;Arial&quot;;" x="338" y="15" text-anchor="middle" font="10px &quot;Arial&quot;" stroke="none" fill="#000000"><tspan dy="3.5">6-7</tspan></text><text style="text-anchor: middle; font: 10px &quot;Arial&quot;;" x="388" y="15" text-anchor="middle" font="10px &quot;Arial&quot;" stroke="none" fill="#000000"><tspan dy="3.5">7-8</tspan></text><text style="text-anchor: middle; font: 10px &quot;Arial&quot;;" x="438" y="15" text-anchor="middle" font="10px &quot;Arial&quot;" stroke="none" fill="#000000"><tspan dy="3.5">8-9</tspan></text><text style="text-anchor: middle; font: 10px &quot;Arial&quot;;" x="488" y="15" text-anchor="middle" font="10px &quot;Arial&quot;" stroke="none" fill="#000000"><tspan dy="3.5">9-10</tspan></text><text style="text-anchor: middle; font: 10px &quot;Arial&quot;;" x="538" y="15" text-anchor="middle" font="10px &quot;Arial&quot;" stroke="none" fill="#000000"><tspan dy="3.5">10-11</tspan></text><text style="text-anchor: middle; font: 10px &quot;Arial&quot;;" x="588" y="15" text-anchor="middle" font="10px &quot;Arial&quot;" stroke="none" fill="#000000"><tspan dy="3.5">11-12</tspan></text><text style="text-anchor: middle; font: 10px &quot;Arial&quot;;" x="638" y="15" text-anchor="middle" font="10px &quot;Arial&quot;" stroke="none" fill="#000000"><tspan dy="3.5">12-13</tspan></text><text style="text-anchor: middle; font: 10px &quot;Arial&quot;;" x="688" y="15" text-anchor="middle" font="10px &quot;Arial&quot;" stroke="none" fill="#000000"><tspan dy="3.5">13-14</tspan></text><text style="text-anchor: middle; font: 10px &quot;Arial&quot;;" x="738" y="15" text-anchor="middle" font="10px &quot;Arial&quot;" stroke="none" fill="#000000"><tspan dy="3.5">14-15</tspan></text><text style="text-anchor: middle; font: 10px &quot;Arial&quot;;" x="788" y="15" text-anchor="middle" font="10px &quot;Arial&quot;" stroke="none" fill="#000000"><tspan dy="3.5">15-16</tspan></text><text style="text-anchor: middle; font: 10px &quot;Arial&quot;;" x="838" y="15" text-anchor="middle" font="10px &quot;Arial&quot;" stroke="none" fill="#000000"><tspan dy="3.5">16-17</tspan></text><text style="text-anchor: middle; font: 10px &quot;Arial&quot;;" x="888" y="15" text-anchor="middle" font="10px &quot;Arial&quot;" stroke="none" fill="#000000"><tspan dy="3.5">17-18</tspan></text><text style="text-anchor: middle; font: 10px &quot;Arial&quot;;" x="938" y="15" text-anchor="middle" font="10px &quot;Arial&quot;" stroke="none" fill="#000000"><tspan dy="3.5">18-19</tspan></text><text style="text-anchor: middle; font: 10px &quot;Arial&quot;;" x="988" y="15" text-anchor="middle" font="10px &quot;Arial&quot;" stroke="none" fill="#000000"><tspan dy="3.5">19-20</tspan></text><text style="text-anchor: middle; font: 10px &quot;Arial&quot;;" x="1038" y="15" text-anchor="middle" font="10px &quot;Arial&quot;" stroke="none" fill="#000000"><tspan dy="3.5">20-21</tspan></text><text style="text-anchor: middle; font: 10px &quot;Arial&quot;;" x="1088" y="15" text-anchor="middle" font="10px &quot;Arial&quot;" stroke="none" fill="#000000"><tspan dy="3.5">21-22</tspan></text><text style="text-anchor: middle; font: 10px &quot;Arial&quot;;" x="1138" y="15" text-anchor="middle" font="10px &quot;Arial&quot;" stroke="none" fill="#000000"><tspan dy="3.5">22-23</tspan></text><text style="text-anchor: middle; font: 10px &quot;Arial&quot;;" x="1188" y="15" text-anchor="middle" font="10px &quot;Arial&quot;" stroke="none" fill="#000000"><tspan dy="3.5">23-24</tspan></text><text style="text-anchor: middle; font: 10px &quot;Arial&quot;;" x="1255" y="15" text-anchor="middle" font="10px &quot;Arial&quot;" stroke="none" fill="#000000"><tspan dy="3.5">Time</tspan></text><text style="text-anchor: middle; font: 10px &quot;Arial&quot;;" x="0" y="40" text-anchor="middle" font="10px &quot;Arial&quot;" stroke="none" fill="#000000"><tspan dy="3.5">Di</tspan></text><text style="text-anchor: middle; font: 10px &quot;Arial&quot;;" x="0" y="90" text-anchor="middle" font="10px &quot;Arial&quot;" stroke="none" fill="#000000"><tspan dy="3.5">Mi</tspan></text><text style="text-anchor: middle; font: 10px &quot;Arial&quot;;" x="0" y="140" text-anchor="middle" font="10px &quot;Arial&quot;" stroke="none" fill="#000000"><tspan dy="3.5">Do</tspan></text><text style="text-anchor: middle; font: 10px &quot;Arial&quot;;" x="0" y="190" text-anchor="middle" font="10px &quot;Arial&quot;" stroke="none" fill="#000000"><tspan dy="3.5">Fr</tspan></text><text style="text-anchor: middle; font: 10px &quot;Arial&quot;;" x="0" y="240" text-anchor="middle" font="10px &quot;Arial&quot;" stroke="none" fill="#000000"><tspan dy="3.5">Sa</tspan></text><text style="text-anchor: middle; font: 10px &quot;Arial&quot;;" x="0" y="290" text-anchor="middle" font="10px &quot;Arial&quot;" stroke="none" fill="#000000"><tspan dy="3.5">So</tspan></text><text style="text-anchor: middle; font: 10px &quot;Arial&quot;;" x="0" y="340" text-anchor="middle" font="10px &quot;Arial&quot;" stroke="none" fill="#000000"><tspan dy="3.5">Mo</tspan></text><text style="text-anchor: middle; font: 10px &quot;Arial&quot;;" x="0" y="390" text-anchor="middle" font="10px &quot;Arial&quot;" stroke="none" fill="#000000"><tspan dy="3.5">Di</tspan></text><text style="text-anchor: middle; font: 10px &quot;Arial&quot;;" x="0" y="440" text-anchor="middle" font="10px &quot;Arial&quot;" stroke="none" fill="#000000"><tspan dy="3.5">Mi</tspan></text><text style="text-anchor: middle; font: 10px &quot;Arial&quot;;" x="0" y="490" text-anchor="middle" font="10px &quot;Arial&quot;" stroke="none" fill="#000000"><tspan dy="3.5">Do</tspan></text><text style="text-anchor: middle; font: 10px &quot;Arial&quot;;" x="0" y="540" text-anchor="middle" font="10px &quot;Arial&quot;" stroke="none" fill="#000000"><tspan dy="3.5">Fr</tspan></text><text style="text-anchor: middle; font: 10px &quot;Arial&quot;;" x="0" y="590" text-anchor="middle" font="10px &quot;Arial&quot;" stroke="none" fill="#000000"><tspan dy="3.5">Sa</tspan></text><text style="text-anchor: middle; font: 10px &quot;Arial&quot;;" x="0" y="640" text-anchor="middle" font="10px &quot;Arial&quot;" stroke="none" fill="#000000"><tspan dy="3.5">So</tspan></text><text style="text-anchor: middle; font: 10px &quot;Arial&quot;;" x="0" y="690" text-anchor="middle" font="10px &quot;Arial&quot;" stroke="none" fill="#000000"><tspan dy="3.5">Mo</tspan></text><circle cx="40" cy="40" r="0" fill="#ffffff" stroke="#ffffff" style=""/><circle cx="90" cy="40" r="0" fill="#ffffff" stroke="#ffffff" style=""/><circle cx="140" cy="40" r="0" fill="#ffffff" stroke="#ffffff" style=""/><circle cx="190" cy="40" r="0" fill="#ffffff" stroke="#ffffff" style=""/><circle cx="240" cy="40" r="0" fill="#ffffff" stroke="#ffffff" style=""/><circle cx="290" cy="40" r="0" fill="#ffffff" stroke="#ffffff" style=""/><circle cx="340" cy="40" r="0" fill="#ffffff" stroke="#ffffff" style=""/><circle cx="390" cy="40" r="0" fill="#ffffff" stroke="#ffffff" style=""/><circle cx="440" cy="40" r="0" fill="#ffffff" stroke="#ffffff" style=""/><circle cx="490" cy="40" r="0" fill="#ffffff" stroke="#ffffff" style=""/><circle cx="540" cy="40" r="0" fill="#ffffff" stroke="#ffffff" style=""/><circle cx="590" cy="40" r="0" fill="#ffffff" stroke="#ffffff" style=""/><circle cx="640" cy="40" r="0" fill="#ffffff" stroke="#ffffff" style=""/><circle cx="690" cy="40" r="0" fill="#ffffff" stroke="#ffffff" style=""/><circle cx="740" cy="40" r="0" fill="#ffffff" stroke="#ffffff" style=""/><circle cx="790" cy="40" r="0" fill="#ffffff" stroke="#ffffff" style=""/><circle cx="840" cy="40" r="0" fill="#ffffff" stroke="#ffffff" style=""/><circle cx="890" cy="40" r="0" fill="#ffffff" stroke="#ffffff" style=""/><circle cx="940" cy="40" r="4.3" fill="#7d9aaa" stroke="#6a8c9e" style="opacity: 1;" fill-opacity="0.21020408163265308" width="4.3" height="4.3" opacity="1"/><circle cx="990" cy="40" r="0" fill="#ffffff" stroke="#ffffff" style=""/><circle cx="1040" cy="40" r="0" fill="#ffffff" stroke="#ffffff" style=""/><circle cx="1090" cy="40" r="0" fill="#ffffff" stroke="#ffffff" style=""/><circle cx="1140" cy="40" r="0" fill="#ffffff" stroke="#ffffff" style=""/><circle cx="1190" cy="40" r="4.3" fill="#7d9aaa" stroke="#6a8c9e" style="opacity: 1;" fill-opacity="0.21020408163265308" width="4.3" height="4.3" opacity="1"/><circle cx="40" cy="90" r="0" fill="#ffffff" stroke="#ffffff" style=""/><circle cx="90" cy="90" r="0" fill="#ffffff" stroke="#ffffff" style=""/><circle cx="140" cy="90" r="0" fill="#ffffff" stroke="#ffffff" style=""/><circle cx="190" cy="90" r="0" fill="#ffffff" stroke="#ffffff" style=""/><circle cx="240" cy="90" r="0" fill="#ffffff" stroke="#ffffff" style=""/><circle cx="290" cy="90" r="0" fill="#ffffff" stroke="#ffffff" style=""/><circle cx="340" cy="90" r="0" fill="#ffffff" stroke="#ffffff" style=""/><circle cx="390" cy="90" r="0" fill="#ffffff" stroke="#ffffff" style=""/><circle cx="440" cy="90" r="0" fill="#ffffff" stroke="#ffffff" style=""/><circle cx="490" cy="90" r="0" fill="#ffffff" stroke="#ffffff" style=""/><circle cx="540" cy="90" r="4.3" fill="#7d9aaa" stroke="#6a8c9e" style="opacity: 1;" fill-opacity="0.21020408163265308" width="4.3" height="4.3" opacity="1"/><circle cx="590" cy="90" r="4.3" fill="#7d9aaa" stroke="#6a8c9e" style="opacity: 1;" fill-opacity="0.21020408163265308" width="4.3" height="4.3" opacity="1"/><circle cx="640" cy="90" r="0" fill="#ffffff" stroke="#ffffff" style=""/><circle cx="690" cy="90" r="0" fill="#ffffff" stroke="#ffffff" style=""/><circle cx="740" cy="90" r="0" fill="#ffffff" stroke="#ffffff" style=""/><circle cx="790" cy="90" r="0" fill="#ffffff" stroke="#ffffff" style=""/><circle cx="840" cy="90" r="0" fill="#ffffff" stroke="#ffffff" style=""/><circle cx="890" cy="90" r="0" fill="#ffffff" stroke="#ffffff" style=""/><circle cx="940" cy="90" r="4.3" fill="#7d9aaa" stroke="#6a8c9e" style="opacity: 1;" fill-opacity="0.21020408163265308" width="4.3" height="4.3" opacity="1"/><circle cx="990" cy="90" r="0" fill="#ffffff" stroke="#ffffff" style=""/><circle cx="1040" cy="90" r="0" fill="#ffffff" stroke="#ffffff" style=""/><circle cx="1090" cy="90" r="0" fill="#ffffff" stroke="#ffffff" style=""/><circle cx="1140" cy="90" r="0" fill="#ffffff" stroke="#ffffff" style=""/><circle cx="1190" cy="90" r="0" fill="#ffffff" stroke="#ffffff" style=""/><circle cx="40" cy="140" r="0" fill="#ffffff" stroke="#ffffff" style=""/><circle cx="90" cy="140" r="0" fill="#ffffff" stroke="#ffffff" style=""/><circle cx="140" cy="140" r="0" fill="#ffffff" stroke="#ffffff" style=""/><circle cx="190" cy="140" r="0" fill="#ffffff" stroke="#ffffff" style=""/><circle cx="240" cy="140" r="0" fill="#ffffff" stroke="#ffffff" style=""/><circle cx="290" cy="140" r="0" fill="#ffffff" stroke="#ffffff" style=""/><circle cx="340" cy="140" r="0" fill="#ffffff" stroke="#ffffff" style=""/><circle cx="390" cy="140" r="0" fill="#ffffff" stroke="#ffffff" style=""/><circle cx="440" cy="140" r="0" fill="#ffffff" stroke="#ffffff" style=""/><circle cx="490" cy="140" r="0" fill="#ffffff" stroke="#ffffff" style=""/><circle cx="540" cy="140" r="0" fill="#ffffff" stroke="#ffffff" style=""/><circle cx="590" cy="140" r="4.3" fill="#7d9aaa" stroke="#6a8c9e" style="opacity: 1;" fill-opacity="0.21020408163265308" width="4.3" height="4.3" opacity="1"/><circle cx="640" cy="140" r="4.3" fill="#7d9aaa" stroke="#6a8c9e" style="opacity: 1;" fill-opacity="0.21020408163265308" width="4.3" height="4.3" opacity="1"/><circle cx="690" cy="140" r="0" fill="#ffffff" stroke="#ffffff" style=""/><circle cx="740" cy="140" r="0" fill="#ffffff" stroke="#ffffff" style=""/><circle cx="790" cy="140" r="4.3" fill="#7d9aaa" stroke="#6a8c9e" style="opacity: 1;" fill-opacity="0.21020408163265308" width="4.3" height="4.3" opacity="1"/><circle cx="840" cy="140" r="4.3" fill="#7d9aaa" stroke="#6a8c9e" style="opacity: 1;" fill-opacity="0.21020408163265308" width="4.3" height="4.3" opacity="1"/><circle cx="890" cy="140" r="0" fill="#ffffff" stroke="#ffffff" style=""/><circle cx="940" cy="140" r="0" fill="#ffffff" stroke="#ffffff" style=""/><circle cx="990" cy="140" r="0" fill="#ffffff" stroke="#ffffff" style=""/><circle cx="1040" cy="140" r="0" fill="#ffffff" stroke="#ffffff" style=""/><circle cx="1090" cy="140" r="0" fill="#ffffff" stroke="#ffffff" style=""/><circle cx="1140" cy="140" r="0" fill="#ffffff" stroke="#ffffff" style=""/><circle cx="1190" cy="140" r="0" fill="#ffffff" stroke="#ffffff" style=""/><circle cx="40" cy="190" r="0" fill="#ffffff" stroke="#ffffff" style=""/><circle cx="90" cy="190" r="0" fill="#ffffff" stroke="#ffffff" style=""/><circle cx="140" cy="190" r="0" fill="#ffffff" stroke="#ffffff" style=""/><circle cx="190" cy="190" r="0" fill="#ffffff" stroke="#ffffff" style=""/><circle cx="240" cy="190" r="0" fill="#ffffff" stroke="#ffffff" style=""/><circle cx="290" cy="190" r="0" fill="#ffffff" stroke="#ffffff" style=""/><circle cx="340" cy="190" r="0" fill="#ffffff" stroke="#ffffff" style=""/><circle cx="390" cy="190" r="0" fill="#ffffff" stroke="#ffffff" style=""/><circle cx="440" cy="190" r="0" fill="#ffffff" stroke="#ffffff" style=""/><circle cx="490" cy="190" r="0" fill="#ffffff" stroke="#ffffff" style=""/><circle cx="540" cy="190" r="4.3" fill="#7d9aaa" stroke="#6a8c9e" style="opacity: 1;" fill-opacity="0.21020408163265308" width="4.3" height="4.3" opacity="1"/><circle cx="590" cy="190" r="4.3" fill="#7d9aaa" stroke="#6a8c9e" style="opacity: 1;" fill-opacity="0.21020408163265308" width="4.3" height="4.3" opacity="1"/><circle cx="640" cy="190" r="4.3" fill="#7d9aaa" stroke="#6a8c9e" style="opacity: 1;" fill-opacity="0.21020408163265308" width="4.3" height="4.3" opacity="1"/><circle cx="690" cy="190" r="0" fill="#ffffff" stroke="#ffffff" style=""/><circle cx="740" cy="190" r="0" fill="#ffffff" stroke="#ffffff" style=""/><circle cx="790" cy="190" r="4.3" fill="#7d9aaa" stroke="#6a8c9e" style="opacity: 1;" fill-opacity="0.22040816326530613" width="4.3" height="4.3" opacity="1"/><circle cx="840" cy="190" r="4.3" fill="#7d9aaa" stroke="#6a8c9e" style="opacity: 1;" fill-opacity="0.21020408163265308" width="4.3" height="4.3" opacity="1"/><circle cx="890" cy="190" r="0" fill="#ffffff" stroke="#ffffff" style=""/><circle cx="940" cy="190" r="4.3" fill="#7d9aaa" stroke="#6a8c9e" style="opacity: 1;" fill-opacity="0.21020408163265308" width="4.3" height="4.3" opacity="1"/><circle cx="990" cy="190" r="0" fill="#ffffff" stroke="#ffffff" style=""/><circle cx="1040" cy="190" r="0" fill="#ffffff" stroke="#ffffff" style=""/><circle cx="1090" cy="190" r="4.3" fill="#7d9aaa" stroke="#6a8c9e" style="opacity: 1;" fill-opacity="0.21020408163265308" width="4.3" height="4.3" opacity="1"/><circle cx="1140" cy="190" r="0" fill="#ffffff" stroke="#ffffff" style=""/><circle cx="1190" cy="190" r="0" fill="#ffffff" stroke="#ffffff" style=""/><circle cx="40" cy="240" r="0" fill="#ffffff" stroke="#ffffff" style=""/><circle cx="90" cy="240" r="0" fill="#ffffff" stroke="#ffffff" style=""/><circle cx="140" cy="240" r="0" fill="#ffffff" stroke="#ffffff" style=""/><circle cx="190" cy="240" r="0" fill="#ffffff" stroke="#ffffff" style=""/><circle cx="240" cy="240" r="0" fill="#ffffff" stroke="#ffffff" style=""/><circle cx="290" cy="240" r="0" fill="#ffffff" stroke="#ffffff" style=""/><circle cx="340" cy="240" r="0" fill="#ffffff" stroke="#ffffff" style=""/><circle cx="390" cy="240" r="0" fill="#ffffff" stroke="#ffffff" style=""/><circle cx="440" cy="240" r="0" fill="#ffffff" stroke="#ffffff" style=""/><circle cx="490" cy="240" r="0" fill="#ffffff" stroke="#ffffff" style=""/><circle cx="540" cy="240" r="0" fill="#ffffff" stroke="#ffffff" style=""/><circle cx="590" cy="240" r="0" fill="#ffffff" stroke="#ffffff" style=""/><circle cx="640" cy="240" r="0" fill="#ffffff" stroke="#ffffff" style=""/><circle cx="690" cy="240" r="4.3" fill="#7d9aaa" stroke="#6a8c9e" style="opacity: 1;" fill-opacity="0.21020408163265308" width="4.3" height="4.3" opacity="1"/><circle cx="740" cy="240" r="4.3" fill="#7d9aaa" stroke="#6a8c9e" style="opacity: 1;" fill-opacity="0.21020408163265308" width="4.3" height="4.3" opacity="1"/><circle cx="790" cy="240" r="0" fill="#ffffff" stroke="#ffffff" style=""/><circle cx="840" cy="240" r="0" fill="#ffffff" stroke="#ffffff" style=""/><circle cx="890" cy="240" r="0" fill="#ffffff" stroke="#ffffff" style=""/><circle cx="940" cy="240" r="0" fill="#ffffff" stroke="#ffffff" style=""/><circle cx="990" cy="240" r="0" fill="#ffffff" stroke="#ffffff" style=""/><circle cx="1040" cy="240" r="0" fill="#ffffff" stroke="#ffffff" style=""/><circle cx="1090" cy="240" r="0" fill="#ffffff" stroke="#ffffff" style=""/><circle cx="1140" cy="240" r="0" fill="#ffffff" stroke="#ffffff" style=""/><circle cx="1190" cy="240" r="0" fill="#ffffff" stroke="#ffffff" style=""/><circle cx="40" cy="290" r="0" fill="#ffffff" stroke="#ffffff" style=""/><circle cx="90" cy="290" r="0" fill="#ffffff" stroke="#ffffff" style=""/><circle cx="140" cy="290" r="0" fill="#ffffff" stroke="#ffffff" style=""/><circle cx="190" cy="290" r="0" fill="#ffffff" stroke="#ffffff" style=""/><circle cx="240" cy="290" r="0" fill="#ffffff" stroke="#ffffff" style=""/><circle cx="290" cy="290" r="0" fill="#ffffff" stroke="#ffffff" style=""/><circle cx="340" cy="290" r="0" fill="#ffffff" stroke="#ffffff" style=""/><circle cx="390" cy="290" r="0" fill="#ffffff" stroke="#ffffff" style=""/><circle cx="440" cy="290" r="0" fill="#ffffff" stroke="#ffffff" style=""/><circle cx="490" cy="290" r="0" fill="#ffffff" stroke="#ffffff" style=""/><circle cx="540" cy="290" r="4.3" fill="#7d9aaa" stroke="#6a8c9e" style="opacity: 1;" fill-opacity="0.21020408163265308" width="4.3" height="4.3" opacity="1"/><circle cx="590" cy="290" r="4.3" fill="#7d9aaa" stroke="#6a8c9e" style="opacity: 1;" fill-opacity="0.21020408163265308" width="4.3" height="4.3" opacity="1"/><circle cx="640" cy="290" r="4.3" fill="#7d9aaa" stroke="#6a8c9e" style="opacity: 1;" fill-opacity="0.21020408163265308" width="4.3" height="4.3" opacity="1"/><circle cx="690" cy="290" r="0" fill="#ffffff" stroke="#ffffff" style=""/><circle cx="740" cy="290" r="0" fill="#ffffff" stroke="#ffffff" style=""/><circle cx="790" cy="290" r="0" fill="#ffffff" stroke="#ffffff" style=""/><circle cx="840" cy="290" r="0" fill="#ffffff" stroke="#ffffff" style=""/><circle cx="890" cy="290" r="4.3" fill="#7d9aaa" stroke="#6a8c9e" style="opacity: 1;" fill-opacity="0.21020408163265308" width="4.3" height="4.3" opacity="1"/><circle cx="940" cy="290" r="4.3" fill="#7d9aaa" stroke="#6a8c9e" style="opacity: 1;" fill-opacity="0.21020408163265308" width="4.3" height="4.3" opacity="1"/><circle cx="990" cy="290" r="0" fill="#ffffff" stroke="#ffffff" style=""/><circle cx="1040" cy="290" r="0" fill="#ffffff" stroke="#ffffff" style=""/><circle cx="1090" cy="290" r="0" fill="#ffffff" stroke="#ffffff" style=""/><circle cx="1140" cy="290" r="0" fill="#ffffff" stroke="#ffffff" style=""/><circle cx="1190" cy="290" r="0" fill="#ffffff" stroke="#ffffff" style=""/><circle cx="40" cy="340" r="0" fill="#ffffff" stroke="#ffffff" style=""/><circle cx="90" cy="340" r="4.3" fill="#7d9aaa" stroke="#6a8c9e" style="opacity: 1;" fill-opacity="0.21020408163265308" width="4.3" height="4.3" opacity="1"/><circle cx="140" cy="340" r="5.339255722927014" fill="#7d9aaa" stroke="#66889b" style="opacity: 1;" fill-opacity="0.2306122448979592" width="5.339255722927014" height="5.339255722927014" opacity="1"/><circle cx="190" cy="340" r="0" fill="#ffffff" stroke="#ffffff" style=""/><circle cx="240" cy="340" r="0" fill="#ffffff" stroke="#ffffff" style=""/><circle cx="290" cy="340" r="0" fill="#ffffff" stroke="#ffffff" style=""/><circle cx="340" cy="340" r="0" fill="#ffffff" stroke="#ffffff" style=""/><circle cx="390" cy="340" r="0" fill="#ffffff" stroke="#ffffff" style=""/><circle cx="440" cy="340" r="0" fill="#ffffff" stroke="#ffffff" style=""/><circle cx="490" cy="340" r="0" fill="#ffffff" stroke="#ffffff" style=""/><circle cx="540" cy="340" r="0" fill="#ffffff" stroke="#ffffff" style=""/><circle cx="590" cy="340" r="4.3" fill="#7d9aaa" stroke="#6a8c9e" style="opacity: 1;" fill-opacity="0.21020408163265308" width="4.3" height="4.3" opacity="1"/><circle cx="640" cy="340" r="4.3" fill="#7d9aaa" stroke="#6a8c9e" style="opacity: 1;" fill-opacity="0.21020408163265308" width="4.3" height="4.3" opacity="1"/><circle cx="690" cy="340" r="0" fill="#ffffff" stroke="#ffffff" style=""/><circle cx="740" cy="340" r="4.3" fill="#7d9aaa" stroke="#6a8c9e" style="opacity: 1;" fill-opacity="0.22040816326530613" width="4.3" height="4.3" opacity="1"/><circle cx="790" cy="340" r="0" fill="#ffffff" stroke="#ffffff" style=""/><circle cx="840" cy="340" r="0" fill="#ffffff" stroke="#ffffff" style=""/><circle cx="890" cy="340" r="4.3" fill="#7d9aaa" stroke="#6a8c9e" style="opacity: 1;" fill-opacity="0.21020408163265308" width="4.3" height="4.3" opacity="1"/><circle cx="940" cy="340" r="0" fill="#ffffff" stroke="#ffffff" style=""/><circle cx="990" cy="340" r="0" fill="#ffffff" stroke="#ffffff" style=""/><circle cx="1040" cy="340" r="0" fill="#ffffff" stroke="#ffffff" style=""/><circle cx="1090" cy="340" r="0" fill="#ffffff" stroke="#ffffff" style=""/><circle cx="1140" cy="340" r="0" fill="#ffffff" stroke="#ffffff" style=""/><circle cx="1190" cy="340" r="0" fill="#ffffff" stroke="#ffffff" style=""/><circle cx="40" cy="390" r="0" fill="#ffffff" stroke="#ffffff" style=""/><circle cx="90" cy="390" r="0" fill="#ffffff" stroke="#ffffff" style=""/><circle cx="140" cy="390" r="0" fill="#ffffff" stroke="#ffffff" style=""/><circle cx="190" cy="390" r="0" fill="#ffffff" stroke="#ffffff" style=""/><circle cx="240" cy="390" r="0" fill="#ffffff" stroke="#ffffff" style=""/><circle cx="290" cy="390" r="0" fill="#ffffff" stroke="#ffffff" style=""/><circle cx="340" cy="390" r="0" fill="#ffffff" stroke="#ffffff" style=""/><circle cx="390" cy="390" r="0" fill="#ffffff" stroke="#ffffff" style=""/><circle cx="440" cy="390" r="0" fill="#ffffff" stroke="#ffffff" style=""/><circle cx="490" cy="390" r="0" fill="#ffffff" stroke="#ffffff" style=""/><circle cx="540" cy="390" r="0" fill="#ffffff" stroke="#ffffff" style=""/><circle cx="590" cy="390" r="0" fill="#ffffff" stroke="#ffffff" style=""/><circle cx="640" cy="390" r="0" fill="#ffffff" stroke="#ffffff" style=""/><circle cx="690" cy="390" r="0" fill="#ffffff" stroke="#ffffff" style=""/><circle cx="740" cy="390" r="4.3" fill="#7d9aaa" stroke="#6a8c9e" style="opacity: 1;" fill-opacity="0.21020408163265308" width="4.3" height="4.3" opacity="1"/><circle cx="790" cy="390" r="6.737390595042669" fill="#7d9aaa" stroke="#628395" style="opacity: 1;" fill-opacity="0.24081632653061225" width="6.737390595042669" height="6.737390595042669" opacity="1"/><circle cx="840" cy="390" r="0" fill="#ffffff" stroke="#ffffff" style=""/><circle cx="890" cy="390" r="4.3" fill="#7d9aaa" stroke="#6a8c9e" style="opacity: 1;" fill-opacity="0.21020408163265308" width="4.3" height="4.3" opacity="1"/><circle cx="940" cy="390" r="0" fill="#ffffff" stroke="#ffffff" style=""/><circle cx="990" cy="390" r="0" fill="#ffffff" stroke="#ffffff" style=""/><circle cx="1040" cy="390" r="0" fill="#ffffff" stroke="#ffffff" style=""/><circle cx="1090" cy="390" r="4.3" fill="#7d9aaa" stroke="#6a8c9e" style="opacity: 1;" fill-opacity="0.21020408163265308" width="4.3" height="4.3" opacity="1"/><circle cx="1140" cy="390" r="0" fill="#ffffff" stroke="#ffffff" style=""/><circle cx="1190" cy="390" r="4.3" fill="#7d9aaa" stroke="#6a8c9e" style="opacity: 1;" fill-opacity="0.21020408163265308" width="4.3" height="4.3" opacity="1"/><circle cx="40" cy="440" r="0" fill="#ffffff" stroke="#ffffff" style=""/><circle cx="90" cy="440" r="0" fill="#ffffff" stroke="#ffffff" style=""/><circle cx="140" cy="440" r="0" fill="#ffffff" stroke="#ffffff" style=""/><circle cx="190" cy="440" r="0" fill="#ffffff" stroke="#ffffff" style=""/><circle cx="240" cy="440" r="0" fill="#ffffff" stroke="#ffffff" style=""/><circle cx="290" cy="440" r="0" fill="#ffffff" stroke="#ffffff" style=""/><circle cx="340" cy="440" r="0" fill="#ffffff" stroke="#ffffff" style=""/><circle cx="390" cy="440" r="0" fill="#ffffff" stroke="#ffffff" style=""/><circle cx="440" cy="440" r="4.3" fill="#7d9aaa" stroke="#6a8c9e" style="opacity: 1;" fill-opacity="0.21020408163265308" width="4.3" height="4.3" opacity="1"/><circle cx="490" cy="440" r="4.3" fill="#7d9aaa" stroke="#6a8c9e" style="opacity: 1;" fill-opacity="0.21020408163265308" width="4.3" height="4.3" opacity="1"/><circle cx="540" cy="440" r="4.3" fill="#7d9aaa" stroke="#6a8c9e" style="opacity: 1;" fill-opacity="0.22040816326530613" width="4.3" height="4.3" opacity="1"/><circle cx="590" cy="440" r="4.3" fill="#7d9aaa" stroke="#6a8c9e" style="opacity: 1;" fill-opacity="0.21020408163265308" width="4.3" height="4.3" opacity="1"/><circle cx="640" cy="440" r="0" fill="#ffffff" stroke="#ffffff" style=""/><circle cx="690" cy="440" r="5.339255722927014" fill="#7d9aaa" stroke="#66889b" style="opacity: 1;" fill-opacity="0.2306122448979592" width="5.339255722927014" height="5.339255722927014" opacity="1"/><circle cx="740" cy="440" r="4.3" fill="#7d9aaa" stroke="#6a8c9e" style="opacity: 1;" fill-opacity="0.21020408163265308" width="4.3" height="4.3" opacity="1"/><circle cx="790" cy="440" r="4.3" fill="#7d9aaa" stroke="#6a8c9e" style="opacity: 1;" fill-opacity="0.21020408163265308" width="4.3" height="4.3" opacity="1"/><circle cx="840" cy="440" r="4.3" fill="#7d9aaa" stroke="#6a8c9e" style="opacity: 1;" fill-opacity="0.21020408163265308" width="4.3" height="4.3" opacity="1"/><circle cx="890" cy="440" r="4.3" fill="#7d9aaa" stroke="#6a8c9e" style="opacity: 1;" fill-opacity="0.22040816326530613" width="4.3" height="4.3" opacity="1"/><circle cx="940" cy="440" r="0" fill="#ffffff" stroke="#ffffff" style=""/><circle cx="990" cy="440" r="0" fill="#ffffff" stroke="#ffffff" style=""/><circle cx="1040" cy="440" r="4.3" fill="#7d9aaa" stroke="#6a8c9e" style="opacity: 1;" fill-opacity="0.22040816326530613" width="4.3" height="4.3" opacity="1"/><circle cx="1090" cy="440" r="0" fill="#ffffff" stroke="#ffffff" style=""/><circle cx="1140" cy="440" r="0" fill="#ffffff" stroke="#ffffff" style=""/><circle cx="1190" cy="440" r="4.3" fill="#7d9aaa" stroke="#6a8c9e" style="opacity: 1;" fill-opacity="0.22040816326530613" width="4.3" height="4.3" opacity="1"/><circle cx="40" cy="490" r="0" fill="#ffffff" stroke="#ffffff" style=""/><circle cx="90" cy="490" r="0" fill="#ffffff" stroke="#ffffff" style=""/><circle cx="140" cy="490" r="0" fill="#ffffff" stroke="#ffffff" style=""/><circle cx="190" cy="490" r="0" fill="#ffffff" stroke="#ffffff" style=""/><circle cx="240" cy="490" r="0" fill="#ffffff" stroke="#ffffff" style=""/><circle cx="290" cy="490" r="0" fill="#ffffff" stroke="#ffffff" style=""/><circle cx="340" cy="490" r="0" fill="#ffffff" stroke="#ffffff" style=""/><circle cx="390" cy="490" r="0" fill="#ffffff" stroke="#ffffff" style=""/><circle cx="440" cy="490" r="4.3" fill="#7d9aaa" stroke="#6a8c9e" style="opacity: 1;" fill-opacity="0.21020408163265308" width="4.3" height="4.3" opacity="1"/><circle cx="490" cy="490" r="0" fill="#ffffff" stroke="#ffffff" style=""/><circle cx="540" cy="490" r="0" fill="#ffffff" stroke="#ffffff" style=""/><circle cx="590" cy="490" r="4.3" fill="#7d9aaa" stroke="#6a8c9e" style="opacity: 1;" fill-opacity="0.21020408163265308" width="4.3" height="4.3" opacity="1"/><circle cx="640" cy="490" r="4.3" fill="#7d9aaa" stroke="#6a8c9e" style="opacity: 1;" fill-opacity="0.21020408163265308" width="4.3" height="4.3" opacity="1"/><circle cx="690" cy="490" r="4.3" fill="#7d9aaa" stroke="#6a8c9e" style="opacity: 1;" fill-opacity="0.22040816326530613" width="4.3" height="4.3" opacity="1"/><circle cx="740" cy="490" r="4.3" fill="#7d9aaa" stroke="#6a8c9e" style="opacity: 1;" fill-opacity="0.22040816326530613" width="4.3" height="4.3" opacity="1"/><circle cx="790" cy="490" r="4.3" fill="#7d9aaa" stroke="#6a8c9e" style="opacity: 1;" fill-opacity="0.21020408163265308" width="4.3" height="4.3" opacity="1"/><circle cx="840" cy="490" r="5.339255722927014" fill="#7d9aaa" stroke="#66889b" style="opacity: 1;" fill-opacity="0.2306122448979592" width="5.339255722927014" height="5.339255722927014" opacity="1"/><circle cx="890" cy="490" r="9.457123324408823" fill="#7d9aaa" stroke="#5a798a" style="opacity: 1;" fill-opacity="0.27142857142857146" width="9.457123324408823" height="9.457123324408823" opacity="1"/><circle cx="940" cy="490" r="4.3" fill="#7d9aaa" stroke="#6a8c9e" style="opacity: 1;" fill-opacity="0.22040816326530613" width="4.3" height="4.3" opacity="1"/><circle cx="990" cy="490" r="0" fill="#ffffff" stroke="#ffffff" style=""/><circle cx="1040" cy="490" r="4.3" fill="#7d9aaa" stroke="#6a8c9e" style="opacity: 1;" fill-opacity="0.21020408163265308" width="4.3" height="4.3" opacity="1"/><circle cx="1090" cy="490" r="0" fill="#ffffff" stroke="#ffffff" style=""/><circle cx="1140" cy="490" r="0" fill="#ffffff" stroke="#ffffff" style=""/><circle cx="1190" cy="490" r="0" fill="#ffffff" stroke="#ffffff" style=""/><circle cx="40" cy="540" r="4.3" fill="#7d9aaa" stroke="#6a8c9e" style="opacity: 1;" fill-opacity="0.21020408163265308" width="4.3" height="4.3" opacity="1"/><circle cx="90" cy="540" r="4.3" fill="#7d9aaa" stroke="#6a8c9e" style="opacity: 1;" fill-opacity="0.21020408163265308" width="4.3" height="4.3" opacity="1"/><circle cx="140" cy="540" r="0" fill="#ffffff" stroke="#ffffff" style=""/><circle cx="190" cy="540" r="0" fill="#ffffff" stroke="#ffffff" style=""/><circle cx="240" cy="540" r="0" fill="#ffffff" stroke="#ffffff" style=""/><circle cx="290" cy="540" r="0" fill="#ffffff" stroke="#ffffff" style=""/><circle cx="340" cy="540" r="0" fill="#ffffff" stroke="#ffffff" style=""/><circle cx="390" cy="540" r="0" fill="#ffffff" stroke="#ffffff" style=""/><circle cx="440" cy="540" r="0" fill="#ffffff" stroke="#ffffff" style=""/><circle cx="490" cy="540" r="5.339255722927014" fill="#7d9aaa" stroke="#66889b" style="opacity: 1;" fill-opacity="0.2306122448979592" width="5.339255722927014" height="5.339255722927014" opacity="1"/><circle cx="540" cy="540" r="4.3" fill="#7d9aaa" stroke="#6a8c9e" style="opacity: 1;" fill-opacity="0.22040816326530613" width="4.3" height="4.3" opacity="1"/><circle cx="590" cy="540" r="6.737390595042669" fill="#7d9aaa" stroke="#628395" style="opacity: 1;" fill-opacity="0.24081632653061225" width="6.737390595042669" height="6.737390595042669" opacity="1"/><circle cx="640" cy="540" r="5.339255722927014" fill="#7d9aaa" stroke="#66889b" style="opacity: 1;" fill-opacity="0.2306122448979592" width="5.339255722927014" height="5.339255722927014" opacity="1"/><circle cx="690" cy="540" r="5.339255722927014" fill="#7d9aaa" stroke="#66889b" style="opacity: 1;" fill-opacity="0.2306122448979592" width="5.339255722927014" height="5.339255722927014" opacity="1"/><circle cx="740" cy="540" r="0" fill="#ffffff" stroke="#ffffff" style=""/><circle cx="790" cy="540" r="10.106085892564002" fill="#7d9aaa" stroke="#587687" style="opacity: 1;" fill-opacity="0.2816326530612245" width="10.106085892564002" height="10.106085892564002" opacity="1"/><circle cx="840" cy="540" r="11.190563551951064" fill="#7d9aaa" stroke="#557282" style="opacity: 1;" fill-opacity="0.3020408163265306" width="11.190563551951064" height="11.190563551951064" opacity="1"/><circle cx="890" cy="540" r="4.3" fill="#7d9aaa" stroke="#6a8c9e" style="opacity: 1;" fill-opacity="0.22040816326530613" width="4.3" height="4.3" opacity="1"/><circle cx="940" cy="540" r="4.3" fill="#7d9aaa" stroke="#6a8c9e" style="opacity: 1;" fill-opacity="0.22040816326530613" width="4.3" height="4.3" opacity="1"/><circle cx="990" cy="540" r="4.3" fill="#7d9aaa" stroke="#6a8c9e" style="opacity: 1;" fill-opacity="0.22040816326530613" width="4.3" height="4.3" opacity="1"/><circle cx="1040" cy="540" r="4.3" fill="#7d9aaa" stroke="#6a8c9e" style="opacity: 1;" fill-opacity="0.21020408163265308" width="4.3" height="4.3" opacity="1"/><circle cx="1090" cy="540" r="0" fill="#ffffff" stroke="#ffffff" style=""/><circle cx="1140" cy="540" r="0" fill="#ffffff" stroke="#ffffff" style=""/><circle cx="1190" cy="540" r="0" fill="#ffffff" stroke="#ffffff" style=""/><circle cx="40" cy="590" r="0" fill="#ffffff" stroke="#ffffff" style=""/><circle cx="90" cy="590" r="4.3" fill="#7d9aaa" stroke="#6a8c9e" style="opacity: 1;" fill-opacity="0.22040816326530613" width="4.3" height="4.3" opacity="1"/><circle cx="140" cy="590" r="0" fill="#ffffff" stroke="#ffffff" style=""/><circle cx="190" cy="590" r="0" fill="#ffffff" stroke="#ffffff" style=""/><circle cx="240" cy="590" r="0" fill="#ffffff" stroke="#ffffff" style=""/><circle cx="290" cy="590" r="0" fill="#ffffff" stroke="#ffffff" style=""/><circle cx="340" cy="590" r="0" fill="#ffffff" stroke="#ffffff" style=""/><circle cx="390" cy="590" r="0" fill="#ffffff" stroke="#ffffff" style=""/><circle cx="440" cy="590" r="4.3" fill="#7d9aaa" stroke="#6a8c9e" style="opacity: 1;" fill-opacity="0.21020408163265308" width="4.3" height="4.3" opacity="1"/><circle cx="490" cy="590" r="4.3" fill="#7d9aaa" stroke="#6a8c9e" style="opacity: 1;" fill-opacity="0.21020408163265308" width="4.3" height="4.3" opacity="1"/><circle cx="540" cy="590" r="4.3" fill="#7d9aaa" stroke="#6a8c9e" style="opacity: 1;" fill-opacity="0.21020408163265308" width="4.3" height="4.3" opacity="1"/><circle cx="590" cy="590" r="0" fill="#ffffff" stroke="#ffffff" style=""/><circle cx="640" cy="590" r="5.339255722927014" fill="#7d9aaa" stroke="#66889b" style="opacity: 1;" fill-opacity="0.2306122448979592" width="5.339255722927014" height="5.339255722927014" opacity="1"/><circle cx="690" cy="590" r="7.821868254429727" fill="#7d9aaa" stroke="#5f7f91" style="opacity: 1;" fill-opacity="0.2510204081632653" width="7.821868254429727" height="7.821868254429727" opacity="1"/><circle cx="740" cy="590" r="10.678511445854028" fill="#7d9aaa" stroke="#567484" style="opacity: 1;" fill-opacity="0.29183673469387755" width="10.678511445854028" height="10.678511445854028" opacity="1"/><circle cx="790" cy="590" r="4.3" fill="#7d9aaa" stroke="#6a8c9e" style="opacity: 1;" fill-opacity="0.21020408163265308" width="4.3" height="4.3" opacity="1"/><circle cx="840" cy="590" r="4.3" fill="#7d9aaa" stroke="#6a8c9e" style="opacity: 1;" fill-opacity="0.22040816326530613" width="4.3" height="4.3" opacity="1"/><circle cx="890" cy="590" r="6.737390595042669" fill="#7d9aaa" stroke="#628395" style="opacity: 1;" fill-opacity="0.24081632653061225" width="6.737390595042669" height="6.737390595042669" opacity="1"/><circle cx="940" cy="590" r="6.737390595042669" fill="#7d9aaa" stroke="#628395" style="opacity: 1;" fill-opacity="0.24081632653061225" width="6.737390595042669" height="6.737390595042669" opacity="1"/><circle cx="990" cy="590" r="4.3" fill="#7d9aaa" stroke="#6a8c9e" style="opacity: 1;" fill-opacity="0.22040816326530613" width="4.3" height="4.3" opacity="1"/><circle cx="1040" cy="590" r="5.339255722927014" fill="#7d9aaa" stroke="#66889b" style="opacity: 1;" fill-opacity="0.2306122448979592" width="5.339255722927014" height="5.339255722927014" opacity="1"/><circle cx="1090" cy="590" r="5.339255722927014" fill="#7d9aaa" stroke="#66889b" style="opacity: 1;" fill-opacity="0.2306122448979592" width="5.339255722927014" height="5.339255722927014" opacity="1"/><circle cx="1140" cy="590" r="7.821868254429727" fill="#7d9aaa" stroke="#5f7f91" style="opacity: 1;" fill-opacity="0.2510204081632653" width="7.821868254429727" height="7.821868254429727" opacity="1"/><circle cx="1190" cy="590" r="5.339255722927014" fill="#7d9aaa" stroke="#66889b" style="opacity: 1;" fill-opacity="0.2306122448979592" width="5.339255722927014" height="5.339255722927014" opacity="1"/><circle cx="40" cy="640" r="4.3" fill="#7d9aaa" stroke="#6a8c9e" style="opacity: 1;" fill-opacity="0.21020408163265308" width="4.3" height="4.3" opacity="1"/><circle cx="90" cy="640" r="0" fill="#ffffff" stroke="#ffffff" style=""/><circle cx="140" cy="640" r="4.3" fill="#7d9aaa" stroke="#6a8c9e" style="opacity: 1;" fill-opacity="0.22040816326530613" width="4.3" height="4.3" opacity="1"/><circle cx="190" cy="640" r="0" fill="#ffffff" stroke="#ffffff" style=""/><circle cx="240" cy="640" r="0" fill="#ffffff" stroke="#ffffff" style=""/><circle cx="290" cy="640" r="0" fill="#ffffff" stroke="#ffffff" style=""/><circle cx="340" cy="640" r="0" fill="#ffffff" stroke="#ffffff" style=""/><circle cx="390" cy="640" r="0" fill="#ffffff" stroke="#ffffff" style=""/><circle cx="440" cy="640" r="0" fill="#ffffff" stroke="#ffffff" style=""/><circle cx="490" cy="640" r="4.3" fill="#7d9aaa" stroke="#6a8c9e" style="opacity: 1;" fill-opacity="0.21020408163265308" width="4.3" height="4.3" opacity="1"/><circle cx="540" cy="640" r="8.707951020448347" fill="#7d9aaa" stroke="#5c7b8d" style="opacity: 1;" fill-opacity="0.2612244897959184" width="8.707951020448347" height="8.707951020448347" opacity="1"/><circle cx="590" cy="640" r="8.707951020448347" fill="#7d9aaa" stroke="#5c7b8d" style="opacity: 1;" fill-opacity="0.2612244897959184" width="8.707951020448347" height="8.707951020448347" opacity="1"/><circle cx="640" cy="640" r="11.653771025800083" fill="#7d9aaa" stroke="#547080" style="opacity: 1;" fill-opacity="0.31224489795918364" width="11.653771025800083" height="11.653771025800083" opacity="1"/><circle cx="690" cy="640" r="14.04720674337536" fill="#7d9aaa" stroke="#4d6776" style="opacity: 1;" fill-opacity="0.3836734693877551" width="14.04720674337536" height="14.04720674337536" opacity="1"/><circle cx="740" cy="640" r="13.769416852113212" fill="#7d9aaa" stroke="#4e6877" style="opacity: 1;" fill-opacity="0.3734693877551021" width="13.769416852113212" height="13.769416852113212" opacity="1"/><circle cx="790" cy="640" r="14.796379047335837" fill="#7d9aaa" stroke="#4b6472" style="opacity: 1;" fill-opacity="0.41428571428571426" width="14.796379047335837" height="14.796379047335837" opacity="1"/><circle cx="840" cy="640" r="11.653771025800083" fill="#7d9aaa" stroke="#547080" style="opacity: 1;" fill-opacity="0.31224489795918364" width="11.653771025800083" height="11.653771025800083" opacity="1"/><circle cx="890" cy="640" r="17.80490960019008" fill="#7d9aaa" stroke="#425966" style="opacity: 1;" fill-opacity="0.5979591836734693" width="17.80490960019008" height="17.80490960019008" opacity="1"/><circle cx="940" cy="640" r="17.27899157883855" fill="#7d9aaa" stroke="#445b68" style="opacity: 1;" fill-opacity="0.5571428571428572" width="17.27899157883855" height="17.27899157883855" opacity="1"/><circle cx="990" cy="640" r="17.415902040896693" fill="#7d9aaa" stroke="#435a67" style="opacity: 1;" fill-opacity="0.5673469387755101" width="17.415902040896693" height="17.415902040896693" opacity="1"/><circle cx="1040" cy="640" r="19.47563928022981" fill="#7d9aaa" stroke="#3e535e" style="opacity: 1;" fill-opacity="0.7612244897959184" width="19.47563928022981" height="19.47563928022981" opacity="1"/><circle cx="1090" cy="640" r="20.577757612342683" fill="#7d9aaa" stroke="#3b4f5a" style="opacity: 1;" fill-opacity="0.9040816326530612" width="20.577757612342683" height="20.577757612342683" opacity="1"/><circle cx="1140" cy="640" r="21.357022891708056" fill="#7d9aaa" stroke="#384c56" style="opacity: 1;" fill-opacity="1" width="21.357022891708056" height="21.357022891708056" opacity="1"/><circle cx="1190" cy="640" r="22.282941946338983" fill="#7d9aaa" stroke="#364852" style="opacity: 1;" fill-opacity="1" width="22.282941946338983" height="22.282941946338983" opacity="1"/><circle cx="40" cy="690" r="19.978846979882295" fill="#7d9aaa" stroke="#3c515c" style="opacity: 1;" fill-opacity="0.8224489795918366" width="19.978846979882295" height="19.978846979882295" opacity="1"/><circle cx="90" cy="690" r="16.365057733734265" fill="#7d9aaa" stroke="#465e6c" style="opacity: 1;" fill-opacity="0.4959183673469388" width="16.365057733734265" height="16.365057733734265" opacity="1"/><circle cx="140" cy="690" r="14.796379047335837" fill="#7d9aaa" stroke="#4b6472" style="opacity: 1;" fill-opacity="0.41428571428571426" width="14.796379047335837" height="14.796379047335837" opacity="1"/><circle cx="190" cy="690" r="10.678511445854028" fill="#7d9aaa" stroke="#567484" style="opacity: 1;" fill-opacity="0.29183673469387755" width="10.678511445854028" height="10.678511445854028" opacity="1"/><circle cx="240" cy="690" r="8.707951020448347" fill="#7d9aaa" stroke="#5c7b8d" style="opacity: 1;" fill-opacity="0.2612244897959184" width="8.707951020448347" height="8.707951020448347" opacity="1"/><circle cx="290" cy="690" r="8.707951020448347" fill="#7d9aaa" stroke="#5c7b8d" style="opacity: 1;" fill-opacity="0.2612244897959184" width="8.707951020448347" height="8.707951020448347" opacity="1"/><circle cx="340" cy="690" r="11.190563551951064" fill="#7d9aaa" stroke="#557282" style="opacity: 1;" fill-opacity="0.3020408163265306" width="11.190563551951064" height="11.190563551951064" opacity="1"/><circle cx="390" cy="690" r="14.309973438748901" fill="#7d9aaa" stroke="#4c6675" style="opacity: 1;" fill-opacity="0.39387755102040817" width="14.309973438748901" height="14.309973438748901" opacity="1"/></svg>
