<svg height="1000" version="1.1" width="1400" xmlns="http://www.w3.org/2000/svg" style="overflow: hidden; position: relative;"><desc>Created with Raphaël 2.1.0</desc><defs/><text style="text-anchor: middle; font: 10px &quot;Arial&quot;;" x="38" y="15" text-anchor="middle" font="10px &quot;Arial&quot;" stroke="none" fill="#000000"><tspan dy="3.5">0-1</tspan></text><text style="text-anchor: middle; font: 10px &quot;Arial&quot;;" x="88" y="15" text-anchor="middle" font="10px &quot;Arial&quot;" stroke="none" fill="#000000"><tspan dy="3.5">1-2</tspan></text><text style="text-anchor: middle; font: 10px &quot;Arial&quot;;" x="138" y="15" text-anchor="middle" font="10px &quot;Arial&quot;" stroke="none" fill="#000000"><tspan dy="3.5">2-3</tspan></text><text style="text-anchor: middle; font: 10px &quot;Arial&quot;;" x="188" y="15" text-anchor="middle" font="10px &quot;Arial&quot;" stroke="none" fill="#000000"><tspan dy="3.5">3-4</tspan></text><text style="text-anchor: middle; font: 10px &quot;Arial&quot;;" x="238" y="15" text-anchor="middle" font="10px &quot;Arial&quot;" stroke="none" fill="#000000"><tspan dy="3.5">4-5</tspan></text><text style="text-anchor: middle; font: 10px &quot;Arial&quot;;" x="288" y="15" text-anchor="middle" font="10px &quot;Arial&quot;" stroke="none" fill="#000000"><tspan dy="3.5">5-6</tspan></text><text style="text-anchor: middle; font: 10px &quot;Arial&quot;;" x="338" y="15" text-anchor="middle" font="10px &quot;Arial&quot;" stroke="none" fill="#000000"><tspan dy="3.5">6-7</tspan></text><text style="text-anchor: middle; font: 10px &quot;Arial&quot;;" x="388" y="15" text-anchor="middle" font="10px &quot;Arial&quot;" stroke="none" fill="#000000"><tspan dy="3.5">7-8</tspan></text><text style="text-anchor: middle; font: 10px &quot;Arial&quot;;" x="438" y="15" text-anchor="middle" font="10px &quot;Arial&quot;" stroke="none" fill="#000000"><tspan dy="3.5">8-9</tspan></text><text style="text-anchor: middle; font: 10px &quot;Arial&quot;;" x="488" y="15" text-anchor="middle" font="10px &quot;Arial&quot;" stroke="none" fill="#000000"><tspan dy="3.5">9-10</tspan></text><text style="text-anchor: middle; font: 10px &quot;Arial&quot;;" x="538" y="15" text-anchor="middle" font="10px &quot;Arial&quot;" stroke="none" fill="#000000"><tspan dy="3.5">10-11</tspan></text><text style="text-anchor: middle; font: 10px &quot;Arial&quot;;" x="588" y="15" text-anchor="middle" font="10px &quot;Arial&quot;" stroke="none" fill="#000000"><tspan dy="3.5">11-12</tspan></text><text style="text-anchor: middle; font: 10px &quot;Arial&quot;;" x="638" y="15" text-anchor="middle" font="10px &quot;Arial&quot;" stroke="none" fill="#000000"><tspan dy="3.5">12-13</tspan></text><text style="text-anchor: middle; font: 10px &quot;Arial&quot;;" x="688" y="15" text-anchor="middle" font="10px &quot;Arial&quot;" stroke="none" fill="#000000"><tspan dy="3.5">13-14</tspan></text><text style="text-anchor: middle; font: 10px &quot;Arial&quot;;" x="738" y="15" text-anchor="middle" font="10px &quot;Arial&quot;" stroke="none" fill="#000000"><tspan dy="3.5">14-15</tspan></text><text style="text-anchor: middle; font: 10px &quot;Arial&quot;;" x="788" y="15" text-anchor="middle" font="10px &quot;Arial&quot;" stroke="none" fill="#000000"><tspan dy="3.5">15-16</tspan></text><text style="text-anchor: middle; font: 10px &quot;Arial&quot;;" x="838" y="15" text-anchor="middle" font="10px &quot;Arial&quot;" stroke="none" fill="#000000"><tspan dy="3.5">16-17</tspan></text><text style="text-anchor: middle; font: 10px &quot;Arial&quot;;" x="888" y="15" text-anchor="middle" font="10px &quot;Arial&quot;" stroke="none" fill="#000000"><tspan dy="3.5">17-18</tspan></text><text style="text-anchor: middle; font: 10px &quot;Arial&quot;;" x="938" y="15" text-anchor="middle" font="10px &quot;Arial&quot;" stroke="none" fill="#000000"><tspan dy="3.5">18-19</tspan></text><text style="text-anchor: middle; font: 10px &quot;Arial&quot;;" x="988" y="15" text-anchor="middle" font="10px &quot;Arial&quot;" stroke="none" fill="#000000"><tspan dy="3.5">19-20</tspan></text><text style="text-anchor: middle; font: 10px &quot;Arial&quot;;" x="1038" y="15" text-anchor="middle" font="10px &quot;Arial&quot;" stroke="none" fill="#000000"><tspan dy="3.5">20-21</tspan></text><text style="text-anchor: middle; font: 10px &quot;Arial&quot;;" x="1088" y="15" text-anchor="middle" font="10px &quot;Arial&quot;" stroke="none" fill="#000000"><tspan dy="3.5">21-22</tspan></text><text style="text-anchor: middle; font: 10px &quot;Arial&quot;;" x="1138" y="15" text-anchor="middle" font="10px &quot;Arial&quot;" stroke="none" fill="#000000"><tspan dy="3.5">22-23</tspan></text><text style="text-anchor: middle; font: 10px &quot;Arial&quot;;" x="1188" y="15" text-anchor="middle" font="10px &quot;Arial&quot;" stroke="none" fill="#000000"><tspan dy="3.5">23-24</tspan></text><text style="text-anchor: middle; font: 10px &quot;Arial&quot;;" x="1255" y="15" text-anchor="middle" font="10px &quot;Arial&quot;" stroke="none" fill="#000000"><tspan dy="3.5">Time</tspan></text><text style="text-anchor: middle; font: 10px &quot;Arial&quot;;" x="0" y="40" text-anchor="middle" font="10px &quot;Arial&quot;" stroke="none" fill="#000000"><tspan dy="3.5">Di</tspan></text><text style="text-anchor: middle; font: 10px &quot;Arial&quot;;" x="0" y="90" text-anchor="middle" font="10px &quot;Arial&quot;" stroke="none" fill="#000000"><tspan dy="3.5">Mi</tspan></text><text style="text-anchor: middle; font: 10px &quot;Arial&quot;;" x="0" y="140" text-anchor="middle" font="10px &quot;Arial&quot;" stroke="none" fill="#000000"><tspan dy="3.5">Do</tspan></text><text style="text-anchor: middle; font: 10px &quot;Arial&quot;;" x="0" y="190" text-anchor="middle" font="10px &quot;Arial&quot;" stroke="none" fill="#000000"><tspan dy="3.5">Fr</tspan></text><text style="text-anchor: middle; font: 10px &quot;Arial&quot;;" x="0" y="240" text-anchor="middle" font="10px &quot;Arial&quot;" stroke="none" fill="#000000"><tspan dy="3.5">Sa</tspan></text><text style="text-anchor: middle; font: 10px &quot;Arial&quot;;" x="0" y="290" text-anchor="middle" font="10px &quot;Arial&quot;" stroke="none" fill="#000000"><tspan dy="3.5">So</tspan></text><text style="text-anchor: middle; font: 10px &quot;Arial&quot;;" x="0" y="340" text-anchor="middle" font="10px &quot;Arial&quot;" stroke="none" fill="#000000"><tspan dy="3.5">Mo</tspan></text><text style="text-anchor: middle; font: 10px &quot;Arial&quot;;" x="0" y="390" text-anchor="middle" font="10px &quot;Arial&quot;" stroke="none" fill="#000000"><tspan dy="3.5">Di</tspan></text><text style="text-anchor: middle; font: 10px &quot;Arial&quot;;" x="0" y="440" text-anchor="middle" font="10px &quot;Arial&quot;" stroke="none" fill="#000000"><tspan dy="3.5">Mi</tspan></text><text style="text-anchor: middle; font: 10px &quot;Arial&quot;;" x="0" y="490" text-anchor="middle" font="10px &quot;Arial&quot;" stroke="none" fill="#000000"><tspan dy="3.5">Do</tspan></text><text style="text-anchor: middle; font: 10px &quot;Arial&quot;;" x="0" y="540" text-anchor="middle" font="10px &quot;Arial&quot;" stroke="none" fill="#000000"><tspan dy="3.5">Fr</tspan></text><text style="text-anchor: middle; font: 10px &quot;Arial&quot;;" x="0" y="590" text-anchor="middle" font="10px &quot;Arial&quot;" stroke="none" fill="#000000"><tspan dy="3.5">Sa</tspan></text><text style="text-anchor: middle; font: 10px &quot;Arial&quot;;" x="0" y="640" text-anchor="middle" font="10px &quot;Arial&quot;" stroke="none" fill="#000000"><tspan dy="3.5">So</tspan></text><text style="text-anchor: middle; font: 10px &quot;Arial&quot;;" x="0" y="690" text-anchor="middle" font="10px &quot;Arial&quot;" stroke="none" fill="#000000"><tspan dy="3.5">Mo</tspan></text><circle cx="40" cy="40" r="0" fill="#ffffff" stroke="#ffffff" style=""/><circle cx="90" cy="40" r="0" fill="#ffffff" stroke="#ffffff" style=""/><circle cx="140" cy="40" r="0" fill="#ffffff" stroke="#ffffff" style=""/><circle cx="190" cy="40" r="0" fill="#ffffff" stroke="#ffffff" style=""/><circle cx="240" cy="40" r="0" fill="#ffffff" stroke="#ffffff" style=""/><circle cx="290" cy="40" r="0" fill="#ffffff" stroke="#ffffff" style=""/><circle cx="340" cy="40" r="0" fill="#ffffff" stroke="#ffffff" style=""/><circle cx="390" cy="40" r="0" fill="#ffffff" stroke="#ffffff" style=""/><circle cx="440" cy="40" r="0" fill="#ffffff" stroke="#ffffff" style=""/><circle cx="490" cy="40" r="0" fill="#ffffff" stroke="#ffffff" style=""/><circle cx="540" cy="40" r="0" fill="#ffffff" stroke="#ffffff" style=""/><circle cx="590" cy="40" r="0" fill="#ffffff" stroke="#ffffff" style=""/><circle cx="640" cy="40" r="0" fill="#ffffff" stroke="#ffffff" style=""/><circle cx="690" cy="40" r="0" fill="#ffffff" stroke="#ffffff" style=""/><circle cx="740" cy="40" r="0" fill="#ffffff" stroke="#ffffff" style=""/><circle cx="790" cy="40" r="0" fill="#ffffff" stroke="#ffffff" style=""/><circle cx="840" cy="40" r="0" fill="#ffffff" stroke="#ffffff" style=""/><circle cx="890" cy="40" r="0" fill="#ffffff" stroke="#ffffff" style=""/><circle cx="940" cy="40" r="2.482434167610128" fill="#7d9aaa" stroke="#7292a3" style="" fill-opacity="0.2105263157894737"/><circle cx="990" cy="40" r="0" fill="#ffffff" stroke="#ffffff" style=""/><circle cx="1040" cy="40" r="0" fill="#ffffff" stroke="#ffffff" style=""/><circle cx="1090" cy="40" r="0" fill="#ffffff" stroke="#ffffff" style=""/><circle cx="1140" cy="40" r="0" fill="#ffffff" stroke="#ffffff" style=""/><circle cx="1190" cy="40" r="2.482434167610128" fill="#7d9aaa" stroke="#7292a3" style="" fill-opacity="0.2105263157894737"/><circle cx="40" cy="90" r="0" fill="#ffffff" stroke="#ffffff" style=""/><circle cx="90" cy="90" r="0" fill="#ffffff" stroke="#ffffff" style=""/><circle cx="140" cy="90" r="0" fill="#ffffff" stroke="#ffffff" style=""/><circle cx="190" cy="90" r="0" fill="#ffffff" stroke="#ffffff" style=""/><circle cx="240" cy="90" r="0" fill="#ffffff" stroke="#ffffff" style=""/><circle cx="290" cy="90" r="0" fill="#ffffff" stroke="#ffffff" style=""/><circle cx="340" cy="90" r="0" fill="#ffffff" stroke="#ffffff" style=""/><circle cx="390" cy="90" r="0" fill="#ffffff" stroke="#ffffff" style=""/><circle cx="440" cy="90" r="0" fill="#ffffff" stroke="#ffffff" style=""/><circle cx="490" cy="90" r="0" fill="#ffffff" stroke="#ffffff" style=""/><circle cx="540" cy="90" r="2.482434167610128" fill="#7d9aaa" stroke="#7292a3" style="" fill-opacity="0.2105263157894737"/><circle cx="590" cy="90" r="2.482434167610128" fill="#7d9aaa" stroke="#7292a3" style="" fill-opacity="0.2105263157894737"/><circle cx="640" cy="90" r="0" fill="#ffffff" stroke="#ffffff" style=""/><circle cx="690" cy="90" r="0" fill="#ffffff" stroke="#ffffff" style=""/><circle cx="740" cy="90" r="0" fill="#ffffff" stroke="#ffffff" style=""/><circle cx="790" cy="90" r="0" fill="#ffffff" stroke="#ffffff" style=""/><circle cx="840" cy="90" r="0" fill="#ffffff" stroke="#ffffff" style=""/><circle cx="890" cy="90" r="0" fill="#ffffff" stroke="#ffffff" style=""/><circle cx="940" cy="90" r="2.482434167610128" fill="#7d9aaa" stroke="#7292a3" style="" fill-opacity="0.2105263157894737"/><circle cx="990" cy="90" r="0" fill="#ffffff" stroke="#ffffff" style=""/><circle cx="1040" cy="90" r="0" fill="#ffffff" stroke="#ffffff" style=""/><circle cx="1090" cy="90" r="0" fill="#ffffff" stroke="#ffffff" style=""/><circle cx="1140" cy="90" r="0" fill="#ffffff" stroke="#ffffff" style=""/><circle cx="1190" cy="90" r="0" fill="#ffffff" stroke="#ffffff" style=""/><circle cx="40" cy="140" r="0" fill="#ffffff" stroke="#ffffff" style=""/><circle cx="90" cy="140" r="0" fill="#ffffff" stroke="#ffffff" style=""/><circle cx="140" cy="140" r="0" fill="#ffffff" stroke="#ffffff" style=""/><circle cx="190" cy="140" r="0" fill="#ffffff" stroke="#ffffff" style=""/><circle cx="240" cy="140" r="0" fill="#ffffff" stroke="#ffffff" style=""/><circle cx="290" cy="140" r="0" fill="#ffffff" stroke="#ffffff" style=""/><circle cx="340" cy="140" r="0" fill="#ffffff" stroke="#ffffff" style=""/><circle cx="390" cy="140" r="0" fill="#ffffff" stroke="#ffffff" style=""/><circle cx="440" cy="140" r="0" fill="#ffffff" stroke="#ffffff" style=""/><circle cx="490" cy="140" r="0" fill="#ffffff" stroke="#ffffff" style=""/><circle cx="540" cy="140" r="0" fill="#ffffff" stroke="#ffffff" style=""/><circle cx="590" cy="140" r="2.482434167610128" fill="#7d9aaa" stroke="#7292a3" style="" fill-opacity="0.2105263157894737"/><circle cx="640" cy="140" r="2.482434167610128" fill="#7d9aaa" stroke="#7292a3" style="" fill-opacity="0.2105263157894737"/><circle cx="690" cy="140" r="0" fill="#ffffff" stroke="#ffffff" style=""/><circle cx="740" cy="140" r="0" fill="#ffffff" stroke="#ffffff" style=""/><circle cx="790" cy="140" r="2.482434167610128" fill="#7d9aaa" stroke="#7292a3" style="" fill-opacity="0.2105263157894737"/><circle cx="840" cy="140" r="2.482434167610128" fill="#7d9aaa" stroke="#7292a3" style="" fill-opacity="0.2105263157894737"/><circle cx="890" cy="140" r="0" fill="#ffffff" stroke="#ffffff" style=""/><circle cx="940" cy="140" r="0" fill="#ffffff" stroke="#ffffff" style=""/><circle cx="990" cy="140" r="0" fill="#ffffff" stroke="#ffffff" style=""/><circle cx="1040" cy="140" r="0" fill="#ffffff" stroke="#ffffff" style=""/><circle cx="1090" cy="140" r="0" fill="#ffffff" stroke="#ffffff" style=""/><circle cx="1140" cy="140" r="0" fill="#ffffff" stroke="#ffffff" style=""/><circle cx="1190" cy="140" r="0" fill="#ffffff" stroke="#ffffff" style=""/><circle cx="40" cy="190" r="0" fill="#ffffff" stroke="#ffffff" style=""/><circle cx="90" cy="190" r="0" fill="#ffffff" stroke="#ffffff" style=""/><circle cx="140" cy="190" r="0" fill="#ffffff" stroke="#ffffff" style=""/><circle cx="190" cy="190" r="0" fill="#ffffff" stroke="#ffffff" style=""/><circle cx="240" cy="190" r="0" fill="#ffffff" stroke="#ffffff" style=""/><circle cx="290" cy="190" r="0" fill="#ffffff" stroke="#ffffff" style=""/><circle cx="340" cy="190" r="0" fill="#ffffff" stroke="#ffffff" style=""/><circle cx="390" cy="190" r="0" fill="#ffffff" stroke="#ffffff" style=""/><circle cx="440" cy="190" r="0" fill="#ffffff" stroke="#ffffff" style=""/><circle cx="490" cy="190" r="0" fill="#ffffff" stroke="#ffffff" style=""/><circle cx="540" cy="190" r="2.482434167610128" fill="#7d9aaa" stroke="#7292a3" style="" fill-opacity="0.2105263157894737"/><circle cx="590" cy="190" r="2.482434167610128" fill="#7d9aaa" stroke="#7292a3" style="" fill-opacity="0.2105263157894737"/><circle cx="640" cy="190" r="2.482434167610128" fill="#7d9aaa" stroke="#7292a3" style="" fill-opacity="0.2105263157894737"/><circle cx="690" cy="190" r="0" fill="#ffffff" stroke="#ffffff" style=""/><circle cx="740" cy="190" r="0" fill="#ffffff" stroke="#ffffff" style=""/><circle cx="790" cy="190" r="3.510692067532608" fill="#7d9aaa" stroke="#6e8ea0" style="" fill-opacity="0.2210526315789474"/><circle cx="840" cy="190" r="2.482434167610128" fill="#7d9aaa" stroke="#7292a3" style="" fill-opacity="0.2105263157894737"/><circle cx="890" cy="190" r="0" fill="#ffffff" stroke="#ffffff" style=""/><circle cx="940" cy="190" r="2.482434167610128" fill="#7d9aaa" stroke="#7292a3" style="" fill-opacity="0.2105263157894737"/><circle cx="990" cy="190" r="0" fill="#ffffff" stroke="#ffffff" style=""/><circle cx="1040" cy="190" r="0" fill="#ffffff" stroke="#ffffff" style=""/><circle cx="1090" cy="190" r="2.482434167610128" fill="#7d9aaa" stroke="#7292a3" style="" fill-opacity="0.2105263157894737"/><circle cx="1140" cy="190" r="0" fill="#ffffff" stroke="#ffffff" style=""/><circle cx="1190" cy="190" r="0" fill="#ffffff" stroke="#ffffff" style=""/><circle cx="40" cy="240" r="0" fill="#ffffff" stroke="#ffffff" style=""/><circle cx="90" cy="240" r="0" fill="#ffffff" stroke="#ffffff" style=""/><circle cx="140" cy="240" r="0" fill="#ffffff" stroke="#ffffff" style=""/><circle cx="190" cy="240" r="0" fill="#ffffff" stroke="#ffffff" style=""/><circle cx="240" cy="240" r="0" fill="#ffffff" stroke="#ffffff" style=""/><circle cx="290" cy="240" r="0" fill="#ffffff" stroke="#ffffff" style=""/><circle cx="340" cy="240" r="0" fill="#ffffff" stroke="#ffffff" style=""/><circle cx="390" cy="240" r="0" fill="#ffffff" stroke="#ffffff" style=""/><circle cx="440" cy="240" r="0" fill="#ffffff" stroke="#ffffff" style=""/><circle cx="490" cy="240" r="0" fill="#ffffff" stroke="#ffffff" style=""/><circle cx="540" cy="240" r="0" fill="#ffffff" stroke="#ffffff" style=""/><circle cx="590" cy="240" r="0" fill="#ffffff" stroke="#ffffff" style=""/><circle cx="640" cy="240" r="0" fill="#ffffff" stroke="#ffffff" style=""/><circle cx="690" cy="240" r="2.482434167610128" fill="#7d9aaa" stroke="#7292a3" style="" fill-opacity="0.2105263157894737"/><circle cx="740" cy="240" r="2.482434167610128" fill="#7d9aaa" stroke="#7292a3" style="" fill-opacity="0.2105263157894737"/><circle cx="790" cy="240" r="0" fill="#ffffff" stroke="#ffffff" style=""/><circle cx="840" cy="240" r="0" fill="#ffffff" stroke="#ffffff" style=""/><circle cx="890" cy="240" r="0" fill="#ffffff" stroke="#ffffff" style=""/><circle cx="940" cy="240" r="0" fill="#ffffff" stroke="#ffffff" style=""/><circle cx="990" cy="240" r="0" fill="#ffffff" stroke="#ffffff" style=""/><circle cx="1040" cy="240" r="0" fill="#ffffff" stroke="#ffffff" style=""/><circle cx="1090" cy="240" r="0" fill="#ffffff" stroke="#ffffff" style=""/><circle cx="1140" cy="240" r="0" fill="#ffffff" stroke="#ffffff" style=""/><circle cx="1190" cy="240" r="0" fill="#ffffff" stroke="#ffffff" style=""/><circle cx="40" cy="290" r="0" fill="#ffffff" stroke="#ffffff" style=""/><circle cx="90" cy="290" r="0" fill="#ffffff" stroke="#ffffff" style=""/><circle cx="140" cy="290" r="0" fill="#ffffff" stroke="#ffffff" style=""/><circle cx="190" cy="290" r="0" fill="#ffffff" stroke="#ffffff" style=""/><circle cx="240" cy="290" r="0" fill="#ffffff" stroke="#ffffff" style=""/><circle cx="290" cy="290" r="0" fill="#ffffff" stroke="#ffffff" style=""/><circle cx="340" cy="290" r="0" fill="#ffffff" stroke="#ffffff" style=""/><circle cx="390" cy="290" r="0" fill="#ffffff" stroke="#ffffff" style=""/><circle cx="440" cy="290" r="0" fill="#ffffff" stroke="#ffffff" style=""/><circle cx="490" cy="290" r="0" fill="#ffffff" stroke="#ffffff" style=""/><circle cx="540" cy="290" r="2.482434167610128" fill="#7d9aaa" stroke="#7292a3" style="" fill-opacity="0.2105263157894737"/><circle cx="590" cy="290" r="2.482434167610128" fill="#7d9aaa" stroke="#7292a3" style="" fill-opacity="0.2105263157894737"/><circle cx="640" cy="290" r="2.482434167610128" fill="#7d9aaa" stroke="#7292a3" style="" fill-opacity="0.2105263157894737"/><circle cx="690" cy="290" r="0" fill="#ffffff" stroke="#ffffff" style=""/><circle cx="740" cy="290" r="0" fill="#ffffff" stroke="#ffffff" style=""/><circle cx="790" cy="290" r="0" fill="#ffffff" stroke="#ffffff" style=""/><circle cx="840" cy="290" r="0" fill="#ffffff" stroke="#ffffff" style=""/><circle cx="890" cy="290" r="2.482434167610128" fill="#7d9aaa" stroke="#7292a3" style="" fill-opacity="0.2105263157894737"/><circle cx="940" cy="290" r="2.482434167610128" fill="#7d9aaa" stroke="#7292a3" style="" fill-opacity="0.2105263157894737"/><circle cx="990" cy="290" r="0" fill="#ffffff" stroke="#ffffff" style=""/><circle cx="1040" cy="290" r="0" fill="#ffffff" stroke="#ffffff" style=""/><circle cx="1090" cy="290" r="0" fill="#ffffff" stroke="#ffffff" style=""/><circle cx="1140" cy="290" r="0" fill="#ffffff" stroke="#ffffff" style=""/><circle cx="1190" cy="290" r="0" fill="#ffffff" stroke="#ffffff" style=""/><circle cx="40" cy="340" r="0" fill="#ffffff" stroke="#ffffff" style=""/><circle cx="90" cy="340" r="2.482434167610128" fill="#7d9aaa" stroke="#7292a3" style="" fill-opacity="0.2105263157894737"/><circle cx="140" cy="340" r="4.299702104745696" fill="#7d9aaa" stroke="#6a8c9e" style="" fill-opacity="0.23157894736842105"/><circle cx="190" cy="340" r="0" fill="#ffffff" stroke="#ffffff" style=""/><circle cx="240" cy="340" r="0" fill="#ffffff" stroke="#ffffff" style=""/><circle cx="290" cy="340" r="0" fill="#ffffff" stroke="#ffffff" style=""/><circle cx="340" cy="340" r="0" fill="#ffffff" stroke="#ffffff" style=""/><circle cx="390" cy="340" r="0" fill="#ffffff" stroke="#ffffff" style=""/><circle cx="440" cy="340" r="0" fill="#ffffff" stroke="#ffffff" style=""/><circle cx="490" cy="340" r="0" fill="#ffffff" stroke="#ffffff" style=""/><circle cx="540" cy="340" r="0" fill="#ffffff" stroke="#ffffff" style=""/><circle cx="590" cy="340" r="2.482434167610128" fill="#7d9aaa" stroke="#7292a3" style="" fill-opacity="0.2105263157894737"/><circle cx="640" cy="340" r="2.482434167610128" fill="#7d9aaa" stroke="#7292a3" style="" fill-opacity="0.2105263157894737"/><circle cx="690" cy="340" r="0" fill="#ffffff" stroke="#ffffff" style=""/><circle cx="740" cy="340" r="3.510692067532608" fill="#7d9aaa" stroke="#6e8ea0" style="" fill-opacity="0.2210526315789474"/><circle cx="790" cy="340" r="0" fill="#ffffff" stroke="#ffffff" style=""/><circle cx="840" cy="340" r="0" fill="#ffffff" stroke="#ffffff" style=""/><circle cx="890" cy="340" r="2.482434167610128" fill="#7d9aaa" stroke="#7292a3" style="" fill-opacity="0.2105263157894737"/><circle cx="940" cy="340" r="0" fill="#ffffff" stroke="#ffffff" style=""/><circle cx="990" cy="340" r="0" fill="#ffffff" stroke="#ffffff" style=""/><circle cx="1040" cy="340" r="0" fill="#ffffff" stroke="#ffffff" style=""/><circle cx="1090" cy="340" r="0" fill="#ffffff" stroke="#ffffff" style=""/><circle cx="1140" cy="340" r="0" fill="#ffffff" stroke="#ffffff" style=""/><circle cx="1190" cy="340" r="0" fill="#ffffff" stroke="#ffffff" style=""/><circle cx="40" cy="390" r="0" fill="#ffffff" stroke="#ffffff" style=""/><circle cx="90" cy="390" r="0" fill="#ffffff" stroke="#ffffff" style=""/><circle cx="140" cy="390" r="0" fill="#ffffff" stroke="#ffffff" style=""/><circle cx="190" cy="390" r="0" fill="#ffffff" stroke="#ffffff" style=""/><circle cx="240" cy="390" r="0" fill="#ffffff" stroke="#ffffff" style=""/><circle cx="290" cy="390" r="0" fill="#ffffff" stroke="#ffffff" style=""/><circle cx="340" cy="390" r="0" fill="#ffffff" stroke="#ffffff" style=""/><circle cx="390" cy="390" r="0" fill="#ffffff" stroke="#ffffff" style=""/><circle cx="440" cy="390" r="0" fill="#ffffff" stroke="#ffffff" style=""/><circle cx="490" cy="390" r="0" fill="#ffffff" stroke="#ffffff" style=""/><circle cx="540" cy="390" r="0" fill="#ffffff" stroke="#ffffff" style=""/><circle cx="590" cy="390" r="0" fill="#ffffff" stroke="#ffffff" style=""/><circle cx="640" cy="390" r="0" fill="#ffffff" stroke="#ffffff" style=""/><circle cx="690" cy="390" r="0" fill="#ffffff" stroke="#ffffff" style=""/><circle cx="740" cy="390" r="2.482434167610128" fill="#7d9aaa" stroke="#7292a3" style="" fill-opacity="0.2105263157894737"/><circle cx="790" cy="390" r="4.964868335220256" fill="#7d9aaa" stroke="#68899c" style="" fill-opacity="0.24210526315789474"/><circle cx="840" cy="390" r="0" fill="#ffffff" stroke="#ffffff" style=""/><circle cx="890" cy="390" r="2.482434167610128" fill="#7d9aaa" stroke="#7292a3" style="" fill-opacity="0.2105263157894737"/><circle cx="940" cy="390" r="0" fill="#ffffff" stroke="#ffffff" style=""/><circle cx="990" cy="390" r="0" fill="#ffffff" stroke="#ffffff" style=""/><circle cx="1040" cy="390" r="0" fill="#ffffff" stroke="#ffffff" style=""/><circle cx="1090" cy="390" r="2.482434167610128" fill="#7d9aaa" stroke="#7292a3" style="" fill-opacity="0.2105263157894737"/><circle cx="1140" cy="390" r="0" fill="#ffffff" stroke="#ffffff" style=""/><circle cx="1190" cy="390" r="2.482434167610128" fill="#7d9aaa" stroke="#7292a3" style="" fill-opacity="0.2105263157894737"/><circle cx="40" cy="440" r="0" fill="#ffffff" stroke="#ffffff" style=""/><circle cx="90" cy="440" r="0" fill="#ffffff" stroke="#ffffff" style=""/><circle cx="140" cy="440" r="0" fill="#ffffff" stroke="#ffffff" style=""/><circle cx="190" cy="440" r="0" fill="#ffffff" stroke="#ffffff" style=""/><circle cx="240" cy="440" r="0" fill="#ffffff" stroke="#ffffff" style=""/><circle cx="290" cy="440" r="0" fill="#ffffff" stroke="#ffffff" style=""/><circle cx="340" cy="440" r="0" fill="#ffffff" stroke="#ffffff" style=""/><circle cx="390" cy="440" r="0" fill="#ffffff" stroke="#ffffff" style=""/><circle cx="440" cy="440" r="2.482434167610128" fill="#7d9aaa" stroke="#7292a3" style="" fill-opacity="0.2105263157894737"/><circle cx="490" cy="440" r="2.482434167610128" fill="#7d9aaa" stroke="#7292a3" style="" fill-opacity="0.2105263157894737"/><circle cx="540" cy="440" r="3.510692067532608" fill="#7d9aaa" stroke="#6e8ea0" style="" fill-opacity="0.2210526315789474"/><circle cx="590" cy="440" r="2.482434167610128" fill="#7d9aaa" stroke="#7292a3" style="" fill-opacity="0.2105263157894737"/><circle cx="640" cy="440" r="0" fill="#ffffff" stroke="#ffffff" style=""/><circle cx="690" cy="440" r="4.299702104745696" fill="#7d9aaa" stroke="#6a8c9e" style="" fill-opacity="0.23157894736842105"/><circle cx="740" cy="440" r="2.482434167610128" fill="#7d9aaa" stroke="#7292a3" style="" fill-opacity="0.2105263157894737"/><circle cx="790" cy="440" r="2.482434167610128" fill="#7d9aaa" stroke="#7292a3" style="" fill-opacity="0.2105263157894737"/><circle cx="840" cy="440" r="2.482434167610128" fill="#7d9aaa" stroke="#7292a3" style="" fill-opacity="0.2105263157894737"/><circle cx="890" cy="440" r="3.510692067532608" fill="#7d9aaa" stroke="#6e8ea0" style="" fill-opacity="0.2210526315789474"/><circle cx="940" cy="440" r="0" fill="#ffffff" stroke="#ffffff" style=""/><circle cx="990" cy="440" r="0" fill="#ffffff" stroke="#ffffff" style=""/><circle cx="1040" cy="440" r="3.510692067532608" fill="#7d9aaa" stroke="#6e8ea0" style="" fill-opacity="0.2210526315789474"/><circle cx="1090" cy="440" r="0" fill="#ffffff" stroke="#ffffff" style=""/><circle cx="1140" cy="440" r="0" fill="#ffffff" stroke="#ffffff" style=""/><circle cx="1190" cy="440" r="3.510692067532608" fill="#7d9aaa" stroke="#6e8ea0" style="" fill-opacity="0.2210526315789474"/><circle cx="40" cy="490" r="0" fill="#ffffff" stroke="#ffffff" style=""/><circle cx="90" cy="490" r="0" fill="#ffffff" stroke="#ffffff" style=""/><circle cx="140" cy="490" r="0" fill="#ffffff" stroke="#ffffff" style=""/><circle cx="190" cy="490" r="0" fill="#ffffff" stroke="#ffffff" style=""/><circle cx="240" cy="490" r="0" fill="#ffffff" stroke="#ffffff" style=""/><circle cx="290" cy="490" r="0" fill="#ffffff" stroke="#ffffff" style=""/><circle cx="340" cy="490" r="0" fill="#ffffff" stroke="#ffffff" style=""/><circle cx="390" cy="490" r="0" fill="#ffffff" stroke="#ffffff" style=""/><circle cx="440" cy="490" r="2.482434167610128" fill="#7d9aaa" stroke="#7292a3" style="" fill-opacity="0.2105263157894737"/><circle cx="490" cy="490" r="0" fill="#ffffff" stroke="#ffffff" style=""/><circle cx="540" cy="490" r="0" fill="#ffffff" stroke="#ffffff" style=""/><circle cx="590" cy="490" r="2.482434167610128" fill="#7d9aaa" stroke="#7292a3" style="" fill-opacity="0.2105263157894737"/><circle cx="640" cy="490" r="2.482434167610128" fill="#7d9aaa" stroke="#7292a3" style="" fill-opacity="0.2105263157894737"/><circle cx="690" cy="490" r="3.510692067532608" fill="#7d9aaa" stroke="#6e8ea0" style="" fill-opacity="0.2210526315789474"/><circle cx="740" cy="490" r="3.510692067532608" fill="#7d9aaa" stroke="#6e8ea0" style="" fill-opacity="0.2210526315789474"/><circle cx="790" cy="490" r="2.482434167610128" fill="#7d9aaa" stroke="#7292a3" style="" fill-opacity="0.2105263157894737"/><circle cx="840" cy="490" r="4.299702104745696" fill="#7d9aaa" stroke="#6a8c9e" style="" fill-opacity="0.23157894736842105"/><circle cx="890" cy="490" r="6.567903453586031" fill="#7d9aaa" stroke="#628496" style="" fill-opacity="0.2736842105263158"/><circle cx="940" cy="490" r="3.510692067532608" fill="#7d9aaa" stroke="#6e8ea0" style="" fill-opacity="0.2210526315789474"/><circle cx="990" cy="490" r="0" fill="#ffffff" stroke="#ffffff" style=""/><circle cx="1040" cy="490" r="2.482434167610128" fill="#7d9aaa" stroke="#7292a3" style="" fill-opacity="0.2105263157894737"/><circle cx="1090" cy="490" r="0" fill="#ffffff" stroke="#ffffff" style=""/><circle cx="1140" cy="490" r="0" fill="#ffffff" stroke="#ffffff" style=""/><circle cx="1190" cy="490" r="0" fill="#ffffff" stroke="#ffffff" style=""/><circle cx="40" cy="540" r="2.482434167610128" fill="#7d9aaa" stroke="#7292a3" style="" fill-opacity="0.2105263157894737"/><circle cx="90" cy="540" r="2.482434167610128" fill="#7d9aaa" stroke="#7292a3" style="" fill-opacity="0.2105263157894737"/><circle cx="140" cy="540" r="0" fill="#ffffff" stroke="#ffffff" style=""/><circle cx="190" cy="540" r="0" fill="#ffffff" stroke="#ffffff" style=""/><circle cx="240" cy="540" r="0" fill="#ffffff" stroke="#ffffff" style=""/><circle cx="290" cy="540" r="0" fill="#ffffff" stroke="#ffffff" style=""/><circle cx="340" cy="540" r="0" fill="#ffffff" stroke="#ffffff" style=""/><circle cx="390" cy="540" r="0" fill="#ffffff" stroke="#ffffff" style=""/><circle cx="440" cy="540" r="0" fill="#ffffff" stroke="#ffffff" style=""/><circle cx="490" cy="540" r="4.299702104745696" fill="#7d9aaa" stroke="#6a8c9e" style="" fill-opacity="0.23157894736842105"/><circle cx="540" cy="540" r="3.510692067532608" fill="#7d9aaa" stroke="#6e8ea0" style="" fill-opacity="0.2210526315789474"/><circle cx="590" cy="540" r="4.964868335220256" fill="#7d9aaa" stroke="#68899c" style="" fill-opacity="0.24210526315789474"/><circle cx="640" cy="540" r="3.510692067532608" fill="#7d9aaa" stroke="#6e8ea0" style="" fill-opacity="0.2210526315789474"/><circle cx="690" cy="540" r="4.299702104745696" fill="#7d9aaa" stroke="#6a8c9e" style="" fill-opacity="0.23157894736842105"/><circle cx="740" cy="540" r="0" fill="#ffffff" stroke="#ffffff" style=""/><circle cx="790" cy="540" r="7.021384135065216" fill="#7d9aaa" stroke="#618294" style="" fill-opacity="0.28421052631578947"/><circle cx="840" cy="540" r="7.850146111072194" fill="#7d9aaa" stroke="#5e7f90" style="" fill-opacity="0.30526315789473685"/><circle cx="890" cy="540" r="3.510692067532608" fill="#7d9aaa" stroke="#6e8ea0" style="" fill-opacity="0.2210526315789474"/><circle cx="940" cy="540" r="3.510692067532608" fill="#7d9aaa" stroke="#6e8ea0" style="" fill-opacity="0.2210526315789474"/><circle cx="990" cy="540" r="3.510692067532608" fill="#7d9aaa" stroke="#6e8ea0" style="" fill-opacity="0.2210526315789474"/><circle cx="1040" cy="540" r="2.482434167610128" fill="#7d9aaa" stroke="#7292a3" style="" fill-opacity="0.2105263157894737"/><circle cx="1090" cy="540" r="0" fill="#ffffff" stroke="#ffffff" style=""/><circle cx="1140" cy="540" r="0" fill="#ffffff" stroke="#ffffff" style=""/><circle cx="1190" cy="540" r="0" fill="#ffffff" stroke="#ffffff" style=""/><circle cx="40" cy="590" r="0" fill="#ffffff" stroke="#ffffff" style=""/><circle cx="90" cy="590" r="3.510692067532608" fill="#7d9aaa" stroke="#6e8ea0" style="" fill-opacity="0.2210526315789474"/><circle cx="140" cy="590" r="0" fill="#ffffff" stroke="#ffffff" style=""/><circle cx="190" cy="590" r="0" fill="#ffffff" stroke="#ffffff" style=""/><circle cx="240" cy="590" r="0" fill="#ffffff" stroke="#ffffff" style=""/><circle cx="290" cy="590" r="0" fill="#ffffff" stroke="#ffffff" style=""/><circle cx="340" cy="590" r="0" fill="#ffffff" stroke="#ffffff" style=""/><circle cx="390" cy="590" r="0" fill="#ffffff" stroke="#ffffff" style=""/><circle cx="440" cy="590" r="2.482434167610128" fill="#7d9aaa" stroke="#7292a3" style="" fill-opacity="0.2105263157894737"/><circle cx="490" cy="590" r="2.482434167610128" fill="#7d9aaa" stroke="#7292a3" style="" fill-opacity="0.2105263157894737"/><circle cx="540" cy="590" r="2.482434167610128" fill="#7d9aaa" stroke="#7292a3" style="" fill-opacity="0.2105263157894737"/><circle cx="590" cy="590" r="0" fill="#ffffff" stroke="#ffffff" style=""/><circle cx="640" cy="590" r="4.299702104745696" fill="#7d9aaa" stroke="#6a8c9e" style="" fill-opacity="0.23157894736842105"/><circle cx="690" cy="590" r="5.550891548444353" fill="#7d9aaa" stroke="#65879a" style="" fill-opacity="0.25263157894736843"/><circle cx="740" cy="590" r="7.447302502830384" fill="#7d9aaa" stroke="#608092" style="" fill-opacity="0.2947368421052632"/><circle cx="790" cy="590" r="2.482434167610128" fill="#7d9aaa" stroke="#7292a3" style="" fill-opacity="0.2105263157894737"/><circle cx="840" cy="590" r="3.510692067532608" fill="#7d9aaa" stroke="#6e8ea0" style="" fill-opacity="0.2210526315789474"/><circle cx="890" cy="590" r="4.964868335220256" fill="#7d9aaa" stroke="#68899c" style="" fill-opacity="0.24210526315789474"/><circle cx="940" cy="590" r="4.964868335220256" fill="#7d9aaa" stroke="#68899c" style="" fill-opacity="0.24210526315789474"/><circle cx="990" cy="590" r="3.510692067532608" fill="#7d9aaa" stroke="#6e8ea0" style="" fill-opacity="0.2210526315789474"/><circle cx="1040" cy="590" r="4.299702104745696" fill="#7d9aaa" stroke="#6a8c9e" style="" fill-opacity="0.23157894736842105"/><circle cx="1090" cy="590" r="4.299702104745696" fill="#7d9aaa" stroke="#6a8c9e" style="" fill-opacity="0.23157894736842105"/><circle cx="1140" cy="590" r="5.550891548444353" fill="#7d9aaa" stroke="#65879a" style="" fill-opacity="0.25263157894736843"/><circle cx="1190" cy="590" r="4.299702104745696" fill="#7d9aaa" stroke="#6a8c9e" style="" fill-opacity="0.23157894736842105"/><circle cx="40" cy="640" r="2.482434167610128" fill="#7d9aaa" stroke="#7292a3" style="" fill-opacity="0.2105263157894737"/><circle cx="90" cy="640" r="0" fill="#ffffff" stroke="#ffffff" style=""/><circle cx="140" cy="640" r="3.510692067532608" fill="#7d9aaa" stroke="#6e8ea0" style="" fill-opacity="0.2210526315789474"/><circle cx="190" cy="640" r="0" fill="#ffffff" stroke="#ffffff" style=""/><circle cx="240" cy="640" r="0" fill="#ffffff" stroke="#ffffff" style=""/><circle cx="290" cy="640" r="0" fill="#ffffff" stroke="#ffffff" style=""/><circle cx="340" cy="640" r="0" fill="#ffffff" stroke="#ffffff" style=""/><circle cx="390" cy="640" r="0" fill="#ffffff" stroke="#ffffff" style=""/><circle cx="440" cy="640" r="0" fill="#ffffff" stroke="#ffffff" style=""/><circle cx="490" cy="640" r="2.482434167610128" fill="#7d9aaa" stroke="#7292a3" style="" fill-opacity="0.2105263157894737"/><circle cx="540" cy="640" r="6.0806970306955055" fill="#7d9aaa" stroke="#638598" style="" fill-opacity="0.26315789473684215"/><circle cx="590" cy="640" r="6.0806970306955055" fill="#7d9aaa" stroke="#638598" style="" fill-opacity="0.26315789473684215"/><circle cx="640" cy="640" r="7.850146111072194" fill="#7d9aaa" stroke="#5e7f90" style="" fill-opacity="0.30526315789473685"/><circle cx="690" cy="640" r="10.532076202597823" fill="#7d9aaa" stroke="#577585" style="" fill-opacity="0.3894736842105263"/><circle cx="740" cy="640" r="9.929736670440512" fill="#7d9aaa" stroke="#597788" style="" fill-opacity="0.368421052631579"/><circle cx="790" cy="640" r="11.101783096888706" fill="#7d9aaa" stroke="#557282" style="" fill-opacity="0.4105263157894737"/><circle cx="840" cy="640" r="8.233302700721023" fill="#7d9aaa" stroke="#5d7d8f" style="" fill-opacity="0.3157894736842105"/><circle cx="890" cy="640" r="15.100057538670937" fill="#7d9aaa" stroke="#4a6371" style="" fill-opacity="0.5894736842105264"/><circle cx="940" cy="640" r="14.042768270130432" fill="#7d9aaa" stroke="#4d6776" style="" fill-opacity="0.5368421052631579"/><circle cx="990" cy="640" r="14.686278591874002" fill="#7d9aaa" stroke="#4b6573" style="" fill-opacity="0.5684210526315789"/><circle cx="1040" cy="640" r="17.901087358564165" fill="#7d9aaa" stroke="#425965" style="" fill-opacity="0.7473684210526317"/><circle cx="1090" cy="640" r="20.470676563397625" fill="#7d9aaa" stroke="#3b4f5a" style="" fill-opacity="0.9157894736842105"/><circle cx="1140" cy="640" r="21.20992682556514" fill="#7d9aaa" stroke="#394c57" style="" fill-opacity="0.9684210526315788"/><circle cx="1190" cy="640" r="24.19577530622294" fill="#7d9aaa" stroke="#30414a" style="" fill-opacity="1"/><circle cx="40" cy="690" r="18.741966961915626" fill="#7d9aaa" stroke="#405561" style="" fill-opacity="0.8"/><circle cx="90" cy="690" r="12.899106314237086" fill="#7d9aaa" stroke="#506c7b" style="" fill-opacity="0.4842105263157895"/><circle cx="140" cy="690" r="11.375942480818104" fill="#7d9aaa" stroke="#557181" style="" fill-opacity="0.42105263157894735"/><circle cx="190" cy="690" r="7.447302502830384" fill="#7d9aaa" stroke="#608092" style="" fill-opacity="0.2947368421052632"/><circle cx="240" cy="690" r="6.0806970306955055" fill="#7d9aaa" stroke="#638598" style="" fill-opacity="0.26315789473684215"/><circle cx="290" cy="690" r="4.964868335220256" fill="#7d9aaa" stroke="#68899c" style="" fill-opacity="0.24210526315789474"/><circle cx="340" cy="690" r="7.850146111072194" fill="#7d9aaa" stroke="#5e7f90" style="" fill-opacity="0.30526315789473685"/><circle cx="390" cy="690" r="10.820679670605058" fill="#7d9aaa" stroke="#567384" style="" fill-opacity="0.4"/></svg>
